<mxfile host="app.diagrams.net" agent="Mozilla/5.0 (X11; Ubuntu; Linux x86_64; rv:134.0) Gecko/20100101 Firefox/134.0" version="26.0.9">
  <diagram name="Page-1" id="OqmcCk_7F2IZghIznqsS">
    <mxGraphModel dx="1044" dy="2015" grid="1" gridSize="10" guides="1" tooltips="1" connect="1" arrows="1" fold="1" page="1" pageScale="1" pageWidth="850" pageHeight="1100" math="0" shadow="0">
      <root>
        <mxCell id="0" />
        <mxCell id="1" parent="0" />
        <mxCell id="PEhd7u2kQ6II4-YQ_keI-1" value="START" style="ellipse;whiteSpace=wrap;html=1;" vertex="1" parent="1">
          <mxGeometry x="365" y="-200" width="120" height="80" as="geometry" />
        </mxCell>
        <mxCell id="PEhd7u2kQ6II4-YQ_keI-7" style="edgeStyle=orthogonalEdgeStyle;rounded=0;orthogonalLoop=1;jettySize=auto;html=1;entryX=0.5;entryY=0;entryDx=0;entryDy=0;" edge="1" parent="1" source="PEhd7u2kQ6II4-YQ_keI-2" target="PEhd7u2kQ6II4-YQ_keI-3">
          <mxGeometry relative="1" as="geometry" />
        </mxCell>
        <mxCell id="PEhd7u2kQ6II4-YQ_keI-56" style="edgeStyle=orthogonalEdgeStyle;rounded=0;orthogonalLoop=1;jettySize=auto;html=1;entryX=0.5;entryY=0;entryDx=0;entryDy=0;" edge="1" parent="1" source="PEhd7u2kQ6II4-YQ_keI-3" target="PEhd7u2kQ6II4-YQ_keI-32">
          <mxGeometry relative="1" as="geometry" />
        </mxCell>
        <mxCell id="PEhd7u2kQ6II4-YQ_keI-57" value="TRUE" style="edgeLabel;html=1;align=center;verticalAlign=middle;resizable=0;points=[];" vertex="1" connectable="0" parent="PEhd7u2kQ6II4-YQ_keI-56">
          <mxGeometry x="-0.08" y="2" relative="1" as="geometry">
            <mxPoint as="offset" />
          </mxGeometry>
        </mxCell>
        <mxCell id="PEhd7u2kQ6II4-YQ_keI-59" style="edgeStyle=orthogonalEdgeStyle;rounded=0;orthogonalLoop=1;jettySize=auto;html=1;entryX=0;entryY=0.5;entryDx=0;entryDy=0;" edge="1" parent="1" target="PEhd7u2kQ6II4-YQ_keI-36">
          <mxGeometry relative="1" as="geometry">
            <mxPoint x="250" y="765" as="targetPoint" />
            <mxPoint x="350" y="265" as="sourcePoint" />
            <Array as="points">
              <mxPoint x="350" y="266" />
              <mxPoint x="251" y="266" />
              <mxPoint x="251" y="750" />
            </Array>
          </mxGeometry>
        </mxCell>
        <mxCell id="PEhd7u2kQ6II4-YQ_keI-60" value="FALSE" style="edgeLabel;html=1;align=center;verticalAlign=middle;resizable=0;points=[];" vertex="1" connectable="0" parent="PEhd7u2kQ6II4-YQ_keI-59">
          <mxGeometry x="-0.7924" y="1" relative="1" as="geometry">
            <mxPoint as="offset" />
          </mxGeometry>
        </mxCell>
        <mxCell id="PEhd7u2kQ6II4-YQ_keI-3" value="Input == &quot;SI&quot;" style="rhombus;whiteSpace=wrap;html=1;" vertex="1" parent="1">
          <mxGeometry x="350" y="220" width="120" height="80" as="geometry" />
        </mxCell>
        <mxCell id="PEhd7u2kQ6II4-YQ_keI-19" value="voti = 0" style="rounded=0;whiteSpace=wrap;html=1;" vertex="1" parent="1">
          <mxGeometry x="370" y="20" width="120" height="60" as="geometry" />
        </mxCell>
        <mxCell id="PEhd7u2kQ6II4-YQ_keI-30" style="edgeStyle=orthogonalEdgeStyle;rounded=0;orthogonalLoop=1;jettySize=auto;html=1;entryX=0.5;entryY=0;entryDx=0;entryDy=0;" edge="1" parent="1" source="PEhd7u2kQ6II4-YQ_keI-29" target="PEhd7u2kQ6II4-YQ_keI-19">
          <mxGeometry relative="1" as="geometry" />
        </mxCell>
        <mxCell id="PEhd7u2kQ6II4-YQ_keI-29" value="voto = 0" style="rounded=0;whiteSpace=wrap;html=1;" vertex="1" parent="1">
          <mxGeometry x="370" y="-90" width="120" height="60" as="geometry" />
        </mxCell>
        <mxCell id="PEhd7u2kQ6II4-YQ_keI-31" style="edgeStyle=orthogonalEdgeStyle;rounded=0;orthogonalLoop=1;jettySize=auto;html=1;entryX=0.45;entryY=-0.017;entryDx=0;entryDy=0;entryPerimeter=0;" edge="1" parent="1" source="PEhd7u2kQ6II4-YQ_keI-1" target="PEhd7u2kQ6II4-YQ_keI-29">
          <mxGeometry relative="1" as="geometry" />
        </mxCell>
        <mxCell id="PEhd7u2kQ6II4-YQ_keI-58" value="" style="edgeStyle=orthogonalEdgeStyle;rounded=0;orthogonalLoop=1;jettySize=auto;html=1;" edge="1" parent="1" source="PEhd7u2kQ6II4-YQ_keI-32" target="PEhd7u2kQ6II4-YQ_keI-53">
          <mxGeometry relative="1" as="geometry" />
        </mxCell>
        <mxCell id="PEhd7u2kQ6II4-YQ_keI-32" value="Read voto" style="shape=parallelogram;perimeter=parallelogramPerimeter;whiteSpace=wrap;html=1;fixedSize=1;" vertex="1" parent="1">
          <mxGeometry x="350" y="330" width="120" height="60" as="geometry" />
        </mxCell>
        <mxCell id="PEhd7u2kQ6II4-YQ_keI-38" style="edgeStyle=orthogonalEdgeStyle;rounded=0;orthogonalLoop=1;jettySize=auto;html=1;exitX=0.5;exitY=1;exitDx=0;exitDy=0;entryX=0.5;entryY=0;entryDx=0;entryDy=0;" edge="1" parent="1" source="PEhd7u2kQ6II4-YQ_keI-34" target="PEhd7u2kQ6II4-YQ_keI-36">
          <mxGeometry relative="1" as="geometry" />
        </mxCell>
        <mxCell id="PEhd7u2kQ6II4-YQ_keI-34" value="voti += 1" style="rounded=0;whiteSpace=wrap;html=1;" vertex="1" parent="1">
          <mxGeometry x="360" y="610" width="120" height="60" as="geometry" />
        </mxCell>
        <mxCell id="PEhd7u2kQ6II4-YQ_keI-40" style="edgeStyle=orthogonalEdgeStyle;rounded=0;orthogonalLoop=1;jettySize=auto;html=1;" edge="1" parent="1" source="PEhd7u2kQ6II4-YQ_keI-36">
          <mxGeometry relative="1" as="geometry">
            <mxPoint x="420" y="850" as="targetPoint" />
          </mxGeometry>
        </mxCell>
        <mxCell id="PEhd7u2kQ6II4-YQ_keI-41" value="TRUE" style="edgeLabel;html=1;align=center;verticalAlign=middle;resizable=0;points=[];" vertex="1" connectable="0" parent="PEhd7u2kQ6II4-YQ_keI-40">
          <mxGeometry x="-0.0744" y="-2" relative="1" as="geometry">
            <mxPoint as="offset" />
          </mxGeometry>
        </mxCell>
        <mxCell id="PEhd7u2kQ6II4-YQ_keI-64" style="edgeStyle=orthogonalEdgeStyle;rounded=0;orthogonalLoop=1;jettySize=auto;html=1;" edge="1" parent="1" source="PEhd7u2kQ6II4-YQ_keI-36" target="PEhd7u2kQ6II4-YQ_keI-2">
          <mxGeometry relative="1" as="geometry">
            <mxPoint x="480" y="270" as="targetPoint" />
            <Array as="points">
              <mxPoint x="631" y="750" />
              <mxPoint x="631" y="150" />
            </Array>
          </mxGeometry>
        </mxCell>
        <mxCell id="PEhd7u2kQ6II4-YQ_keI-36" value="Input == &quot;NO&quot;" style="rhombus;whiteSpace=wrap;html=1;" vertex="1" parent="1">
          <mxGeometry x="380" y="710" width="80" height="80" as="geometry" />
        </mxCell>
        <mxCell id="PEhd7u2kQ6II4-YQ_keI-43" style="edgeStyle=orthogonalEdgeStyle;rounded=0;orthogonalLoop=1;jettySize=auto;html=1;" edge="1" parent="1" source="PEhd7u2kQ6II4-YQ_keI-42" target="PEhd7u2kQ6II4-YQ_keI-44">
          <mxGeometry relative="1" as="geometry">
            <mxPoint x="420" y="970" as="targetPoint" />
          </mxGeometry>
        </mxCell>
        <mxCell id="PEhd7u2kQ6II4-YQ_keI-42" value="media = sommavoti / voti" style="rounded=0;whiteSpace=wrap;html=1;" vertex="1" parent="1">
          <mxGeometry x="360" y="860" width="120" height="60" as="geometry" />
        </mxCell>
        <mxCell id="PEhd7u2kQ6II4-YQ_keI-45" style="edgeStyle=orthogonalEdgeStyle;rounded=0;orthogonalLoop=1;jettySize=auto;html=1;" edge="1" parent="1" source="PEhd7u2kQ6II4-YQ_keI-44" target="PEhd7u2kQ6II4-YQ_keI-46">
          <mxGeometry relative="1" as="geometry">
            <mxPoint x="420" y="1080" as="targetPoint" />
          </mxGeometry>
        </mxCell>
        <mxCell id="PEhd7u2kQ6II4-YQ_keI-44" value="Write media" style="shape=parallelogram;perimeter=parallelogramPerimeter;whiteSpace=wrap;html=1;fixedSize=1;" vertex="1" parent="1">
          <mxGeometry x="360" y="980" width="120" height="60" as="geometry" />
        </mxCell>
        <mxCell id="PEhd7u2kQ6II4-YQ_keI-46" value="END" style="ellipse;whiteSpace=wrap;html=1;" vertex="1" parent="1">
          <mxGeometry x="360" y="1080" width="120" height="80" as="geometry" />
        </mxCell>
        <mxCell id="PEhd7u2kQ6II4-YQ_keI-51" value="" style="edgeStyle=orthogonalEdgeStyle;rounded=0;orthogonalLoop=1;jettySize=auto;html=1;" edge="1" parent="1" source="PEhd7u2kQ6II4-YQ_keI-49" target="PEhd7u2kQ6II4-YQ_keI-34">
          <mxGeometry relative="1" as="geometry" />
        </mxCell>
        <mxCell id="PEhd7u2kQ6II4-YQ_keI-49" value="sommavoti += voto" style="rounded=0;whiteSpace=wrap;html=1;" vertex="1" parent="1">
          <mxGeometry x="360" y="530" width="120" height="60" as="geometry" />
        </mxCell>
        <mxCell id="PEhd7u2kQ6II4-YQ_keI-52" value="" style="edgeStyle=orthogonalEdgeStyle;rounded=0;orthogonalLoop=1;jettySize=auto;html=1;" edge="1" parent="1" source="PEhd7u2kQ6II4-YQ_keI-19" target="PEhd7u2kQ6II4-YQ_keI-2">
          <mxGeometry relative="1" as="geometry">
            <mxPoint x="430" y="190" as="targetPoint" />
            <mxPoint x="430" y="80" as="sourcePoint" />
          </mxGeometry>
        </mxCell>
        <mxCell id="PEhd7u2kQ6II4-YQ_keI-2" value="Read Input" style="shape=parallelogram;perimeter=parallelogramPerimeter;whiteSpace=wrap;html=1;fixedSize=1;" vertex="1" parent="1">
          <mxGeometry x="365" y="120" width="120" height="60" as="geometry" />
        </mxCell>
        <mxCell id="PEhd7u2kQ6II4-YQ_keI-54" value="" style="edgeStyle=orthogonalEdgeStyle;rounded=0;orthogonalLoop=1;jettySize=auto;html=1;" edge="1" parent="1" source="PEhd7u2kQ6II4-YQ_keI-53" target="PEhd7u2kQ6II4-YQ_keI-49">
          <mxGeometry relative="1" as="geometry" />
        </mxCell>
        <mxCell id="PEhd7u2kQ6II4-YQ_keI-55" value="TRUE" style="edgeLabel;html=1;align=center;verticalAlign=middle;resizable=0;points=[];" vertex="1" connectable="0" parent="PEhd7u2kQ6II4-YQ_keI-54">
          <mxGeometry x="-0.5" y="-2" relative="1" as="geometry">
            <mxPoint as="offset" />
          </mxGeometry>
        </mxCell>
        <mxCell id="PEhd7u2kQ6II4-YQ_keI-62" style="edgeStyle=orthogonalEdgeStyle;rounded=0;orthogonalLoop=1;jettySize=auto;html=1;" edge="1" parent="1" source="PEhd7u2kQ6II4-YQ_keI-53" target="PEhd7u2kQ6II4-YQ_keI-32">
          <mxGeometry relative="1" as="geometry">
            <mxPoint x="550" y="350" as="targetPoint" />
            <Array as="points">
              <mxPoint x="551" y="460" />
              <mxPoint x="551" y="360" />
            </Array>
          </mxGeometry>
        </mxCell>
        <mxCell id="PEhd7u2kQ6II4-YQ_keI-63" value="FALSE" style="edgeLabel;html=1;align=center;verticalAlign=middle;resizable=0;points=[];" vertex="1" connectable="0" parent="PEhd7u2kQ6II4-YQ_keI-62">
          <mxGeometry x="0.5822" y="5" relative="1" as="geometry">
            <mxPoint as="offset" />
          </mxGeometry>
        </mxCell>
        <mxCell id="PEhd7u2kQ6II4-YQ_keI-53" value="voto &amp;gt; 0" style="rhombus;whiteSpace=wrap;html=1;" vertex="1" parent="1">
          <mxGeometry x="370" y="420" width="80" height="80" as="geometry" />
        </mxCell>
        <mxCell id="PEhd7u2kQ6II4-YQ_keI-65" value="FALSE" style="text;html=1;align=center;verticalAlign=middle;resizable=0;points=[];autosize=1;strokeColor=none;fillColor=none;" vertex="1" parent="1">
          <mxGeometry x="520" y="734" width="60" height="30" as="geometry" />
        </mxCell>
      </root>
    </mxGraphModel>
  </diagram>
</mxfile>
